<svg width="35" height="38" viewBox="0 0 35 38" fill="none" xmlns="http://www.w3.org/2000/svg">
<path fill-rule="evenodd" clip-rule="evenodd" d="M2.96361 7.54991C4.69159 5.20232 6.92884 3.29822 9.49872 1.98795C12.0686 0.67768 14.9008 -0.0028785 17.7716 9.15101e-06C23.8219 9.15101e-06 29.1942 2.96746 32.5795 7.54991L34.6239 10.3187H0.919277L2.96361 7.54991ZM0.91759 27.6813H34.6239L32.5795 30.4501C30.8514 32.7979 28.6139 34.7022 26.0437 36.0124C23.4735 37.3227 20.641 38.0031 17.7699 38C14.8994 38.0026 12.0675 37.3219 9.49797 36.0117C6.9284 34.7014 4.69141 32.7974 2.96361 30.4501L0.91759 27.6813ZM1.26506 13.3553H0V24.643H2.53012V19.9345H6.21904V17.3435H2.53012V15.9462H6.92747V13.3553H1.26506ZM18.9911 13.3553H25.9169V15.9462H21.5229V17.3418H25.2118V19.9327H21.5229V22.0521H25.9186V24.643H18.9928L18.9911 13.3553ZM28.0725 13.3553H35V15.9462H30.6026V17.3418H34.2916V19.9327H30.6026V22.0521H35V24.643H28.0725V13.3553ZM10.3482 13.3553H9.08313V24.643H11.6133V21.0209H13.1971L15.0053 23.8899L15.6918 24.9781L17.8171 23.5738L17.1306 22.4856L16.0005 20.6927C16.7595 20.2523 17.274 19.4163 17.274 18.4576V15.922C17.274 14.5056 16.154 13.357 14.7708 13.357L10.3482 13.3553ZM14.7439 18.43H11.6133V15.9462H14.7439V18.43Z" fill="#CB2444"/>
</svg>
